<svg viewBox="0 0 512 512" xmlns="http://www.w3.org/2000/svg">
  <!-- Background -->
  <rect width="512" height="512" fill="#E5E5E5"/>
  
  <!-- Face -->
  <ellipse cx="256" cy="280" rx="120" ry="140" fill="#D4B5A0"/>
  
  <!-- Hair -->
  <path d="M140 180 Q140 120 200 100 Q256 90 312 100 Q372 120 372 180 Q372 160 350 140 Q320 120 280 115 Q256 112 232 115 Q192 120 162 140 Q140 160 140 180 Z" fill="#4A4A4A"/>
  
  <!-- Face shape -->
  <ellipse cx="256" cy="300" rx="100" ry="120" fill="#D4B5A0"/>
  
  <!-- Eyes -->
  <ellipse cx="225" cy="260" rx="12" ry="8" fill="#2C2C2C"/>
  <ellipse cx="287" cy="260" rx="12" ry="8" fill="#2C2C2C"/>
  
  <!-- Eyebrows -->
  <ellipse cx="225" cy="245" rx="15" ry="4" fill="#2C2C2C"/>
  <ellipse cx="287" cy="245" rx="15" ry="4" fill="#2C2C2C"/>
  
  <!-- Nose -->
  <ellipse cx="256" cy="290" rx="6" ry="10" fill="#C4A590"/>
  
  <!-- Mouth -->
  <ellipse cx="256" cy="320" rx="20" ry="8" fill="#A0857A"/>
  <ellipse cx="256" cy="318" rx="18" ry="6" fill="#FFFFFF"/>
  
  <!-- Beard/Facial Hair -->
  <ellipse cx="256" cy="350" rx="35" ry="25" fill="#3A3A3A"/>
  <ellipse cx="256" cy="340" rx="30" ry="15" fill="#3A3A3A"/>
  
  <!-- Ears -->
  <ellipse cx="175" cy="280" rx="15" ry="25" fill="#D4B5A0"/>
  <ellipse cx="337" cy="280" rx="15" ry="25" fill="#D4B5A0"/>
  
  <!-- Shirt/Clothing -->
  <ellipse cx="256" cy="460" rx="120" ry="80" fill="#4A4A4A"/>
  <ellipse cx="256" cy="420" rx="100" ry="40" fill="#4A4A4A"/>
</svg>
